<svg width="267" height="143" viewBox="0 0 267 143" fill="none" xmlns="http://www.w3.org/2000/svg">
<circle cx="25.5" cy="45.5" r="21" stroke="#3B82F6" stroke-width="7"/>
<path d="M98.5 45.5C98.5 57.1664 89.2542 66.5 78 66.5C66.7458 66.5 57.5 57.1664 57.5 45.5C57.5 33.8336 66.7458 24.5 78 24.5C89.2542 24.5 98.5 33.8336 98.5 45.5Z" stroke="#14B8A6" stroke-width="7"/>
<path d="M162.5 117.5C162.5 129.166 153.254 138.5 142 138.5C130.746 138.5 121.5 129.166 121.5 117.5C121.5 105.834 130.746 96.5 142 96.5C153.254 96.5 162.5 105.834 162.5 117.5Z" stroke="#EF4444" stroke-width="7"/>
<circle cx="233.5" cy="117.5" r="21" stroke="#FCD34D" stroke-width="7"/>
<path d="M4 21V142" stroke="#3B82F6" stroke-width="7"/>
<path d="M109 21V70" stroke="#14B8A6" stroke-width="7"/>
<path d="M109.058 39C108.593 34 110.731 24 123 24" stroke="#14B8A6" stroke-width="7"/>
<path d="M101 95V142" stroke="#EF4444" stroke-width="7"/>
<path d="M202 95V142" stroke="#FCD34D" stroke-width="7"/>
<path d="M202 85V92" stroke="#EF4444" stroke-width="7"/>
<path d="M101.058 96C100.593 91 102.731 81 115 81" stroke="#EF4444" stroke-width="7"/>
<path d="M128 24H159" stroke="#14B8A6" stroke-width="7"/>
<path d="M142.697 0.302704L143.392 69.7622" stroke="#14B8A6" stroke-width="7"/>
<path d="M171.87 72.5405L172.565 142" stroke="#FCD34D" stroke-width="7"/>
<path d="M19 92C40 102.667 61 102.667 82 92" stroke="#3B82F6" stroke-width="7"/>
<path d="M90 96H144" stroke="#EF4444" stroke-width="6"/>
<circle cx="34.5" cy="45.5" r="23.5" stroke="#3B82F6" stroke-width="2"/>
<path d="M110 45.5C110 58.4982 99.6832 69 87 69C74.3168 69 64 58.4982 64 45.5C64 32.5018 74.3168 22 87 22C99.6832 22 110 32.5018 110 45.5Z" stroke="#14B8A6" stroke-width="2"/>
<path d="M174 117.5C174 130.498 163.683 141 151 141C138.317 141 128 130.498 128 117.5C128 104.502 138.317 94 151 94C163.683 94 174 104.502 174 117.5Z" stroke="#EF4444" stroke-width="2"/>
<circle cx="242.5" cy="117.5" r="23.5" stroke="#FCD34D" stroke-width="2"/>
<path d="M13 21V142" stroke="#3B82F6" stroke-width="2"/>
<path d="M118 21V70" stroke="#14B8A6" stroke-width="2"/>
<path d="M118.058 39C117.593 34 119.731 24 132 24" stroke="#14B8A6" stroke-width="2"/>
<path d="M110 95V142" stroke="#EF4444" stroke-width="2"/>
<path d="M211 95V142" stroke="#FCD34D" stroke-width="2"/>
<path d="M211 85V92" stroke="#EF4444" stroke-width="2"/>
<path d="M110.058 96C109.593 91 111.731 81 124 81" stroke="#EF4444" stroke-width="2"/>
<path d="M137 24H168" stroke="#14B8A6" stroke-width="2"/>
<path d="M151.697 0.302704L152.392 69.7622" stroke="#14B8A6" stroke-width="2"/>
<path d="M180.87 72.5405L181.565 142" stroke="#FCD34D" stroke-width="2"/>
<path d="M28 92C49 102.667 70 102.667 91 92" stroke="#3B82F6" stroke-width="2"/>
<path d="M99 96H153" stroke="#EF4444" stroke-width="2"/>
</svg>
